<svg width="375" height="97" viewBox="0 0 375 97" fill="none" xmlns="http://www.w3.org/2000/svg">
<path d="M30.4775 29.9971C35.9848 29.9971 40.4494 34.4529 40.4494 39.9494C40.4494 45.4459 35.9848 49.9017 30.4775 49.9017C24.9702 49.9017 20.5056 45.4459 20.5056 39.9494C20.5056 34.4529 24.9702 29.9971 30.4775 29.9971Z" fill="white"/>
<path d="M66.9944 29.9971C72.5017 29.9971 76.9663 34.4529 76.9663 39.9494C76.9663 45.4459 72.5017 49.9017 66.9944 49.9017C61.487 49.9017 57.0225 45.4459 57.0225 39.9494C57.0225 34.4529 61.487 29.9971 66.9944 29.9971Z" fill="white"/>
<path fill-rule="evenodd" clip-rule="evenodd" d="M48.5955 0C68.0457 0 84.8261 11.4048 92.5913 27.8792C93.2697 29.1375 94.6346 29.9971 96.2078 29.9971C97.5563 29.9971 98.7507 29.365 99.4919 28.3922C99.6321 28.0277 99.7726 27.6633 99.9127 27.2988C100.42 26.2005 100.968 25.1865 101.56 24.2571C102.911 21.8916 104.305 19.7795 105.741 17.9208C106.163 17.3294 106.628 16.7802 107.135 16.2733C107.641 15.7664 108.148 15.2593 108.655 14.7524C110.767 12.6403 112.963 10.8662 115.243 9.42995C117.608 7.9092 120.269 6.55731 123.226 5.3745C124.239 4.95208 125.295 4.61416 126.393 4.36071C127.491 4.02278 128.631 3.72712 129.814 3.47367C130.321 3.3047 130.828 3.22016 131.334 3.22016C131.841 3.22016 132.306 3.13561 132.728 2.96664C133.404 2.88216 134.037 2.83988 134.629 2.83988C135.304 2.7554 135.98 2.67085 136.656 2.58636C136.804 2.51247 136.984 2.50329 137.196 2.55871L137.382 2.61402C137.595 2.66948 137.775 2.6603 137.923 2.58636C146.792 2.41739 154.098 3.93837 159.842 7.14884C165.586 10.3593 170.147 14.6258 173.526 19.9484C174.455 21.3847 175.215 22.8632 175.806 24.3839C176.398 25.8201 176.947 27.4254 177.454 29.1996C177.623 29.791 177.791 30.4671 177.96 31.2275C178.129 31.9878 178.087 32.7059 177.834 33.3818C177.665 33.8887 177.327 34.2266 176.82 34.3956C176.398 34.4801 175.891 34.6069 175.3 34.7759H174.286C173.779 34.9448 173.188 35.0291 172.512 35.0291C171.921 34.9446 171.33 34.9026 170.738 34.9026C169.978 34.9026 169.049 34.9446 167.951 35.0291H164.91C163.897 34.9446 162.967 34.8604 162.123 34.7759C161.278 34.6069 160.645 34.3955 160.222 34.1421C159.547 33.5507 159.04 32.748 158.702 31.7342C158.364 30.7204 157.942 29.8332 157.435 29.0728C155.83 26.2848 153.718 24.0883 151.1 22.483C149.326 21.3847 147.341 20.4976 145.145 19.8217C143.709 19.3148 141.893 19.0614 139.697 19.0614C137.585 19.0614 135.727 19.2725 134.122 19.6949C133.446 19.8639 132.813 20.033 132.221 20.2019C131.715 20.2864 131.166 20.4553 130.574 20.7087C124.831 23.1588 120.776 27.2142 118.411 32.8748C117.989 33.8886 117.608 34.9449 117.271 36.0432C116.933 37.1415 116.553 38.2821 116.13 39.4648C116.046 40.0562 115.962 40.6053 115.877 41.1121C115.793 41.6191 115.708 42.1683 115.624 42.7597C115.455 43.2667 115.37 43.8159 115.37 44.4073C115.455 44.9142 115.412 45.4633 115.243 46.0546C115.074 46.7305 114.99 47.4489 114.99 48.2092C115.074 48.8851 115.117 49.561 115.117 50.2368C115.117 50.5748 115.074 50.9127 114.99 51.2506C114.99 51.5886 115.032 51.9265 115.117 52.2644V53.405C115.286 53.8274 115.328 54.2499 115.243 54.6723C115.243 55.0947 115.328 55.5172 115.497 55.9396C115.497 56.4465 115.581 57.1224 115.75 57.9672C115.919 58.8965 116.088 59.7837 116.257 60.6286C116.426 61.3889 116.637 62.1493 116.891 62.9097C118.073 66.4581 119.593 69.4998 121.452 72.0343C123.31 74.4844 125.76 76.5121 128.8 78.1174C129.729 78.5398 130.701 78.92 131.715 79.2579C132.728 79.5114 133.826 79.807 135.009 80.145C135.431 80.2294 135.811 80.314 136.149 80.3985H138.43C138.852 80.5675 139.401 80.652 140.077 80.652C140.753 80.5675 141.302 80.483 141.724 80.3985C142.231 80.3985 142.611 80.3562 142.864 80.2717C143.878 80.1028 144.807 79.9337 145.652 79.7647C146.581 79.5957 147.468 79.3001 148.312 78.8777C150.255 78.0328 151.902 76.9345 153.254 75.5828C154.69 74.1465 155.957 72.5412 157.055 70.767C157.562 69.9222 157.984 68.9927 158.322 67.9789C158.66 66.9651 159.04 65.9513 159.462 64.9375C159.716 64.0082 159.969 63.1633 160.222 62.4029C160.476 61.6425 161.025 61.051 161.869 60.6286C162.376 60.4596 163.01 60.375 163.77 60.375H175.933C176.778 60.375 177.454 60.5441 177.96 60.8821C178.552 61.3045 178.847 61.9804 178.847 62.9097C178.932 63.839 178.847 64.7262 178.594 65.571L177.834 68.9927C177.411 70.26 176.989 71.4851 176.567 72.6679C176.229 73.8506 175.764 74.9912 175.173 76.0895C174.751 76.7654 174.413 77.4415 174.159 78.1174C173.906 78.7087 173.568 79.3001 173.146 79.8914C168.5 87.1573 161.743 92.2266 152.874 95.0992C151.945 95.4371 151.015 95.6905 150.086 95.8594C149.157 96.0284 148.228 96.1975 147.299 96.3665C146.876 96.5354 146.454 96.5774 146.032 96.493C145.694 96.493 145.314 96.5775 144.891 96.7465H143.118C142.611 96.831 142.062 96.9155 141.471 97H137.163C136.403 97 135.685 96.9154 135.009 96.7465C134.755 96.662 134.333 96.6197 133.742 96.6197C133.151 96.5352 132.559 96.451 131.968 96.3665C131.377 96.282 130.743 96.1974 130.067 96.113C129.223 95.8595 128.378 95.6481 127.534 95.4792C126.773 95.3102 125.971 95.0991 125.126 94.8456C124.366 94.5922 123.606 94.3386 122.845 94.0851C122.085 93.7472 121.367 93.4092 120.692 93.0713C115.624 90.8747 111.316 87.9601 107.768 84.3272C104.305 80.6098 101.475 76.2162 99.2791 71.147C99.2499 71.0741 99.2218 71.0007 99.1932 70.9277H99.1532C98.4796 69.6018 97.0349 68.685 95.361 68.685C94.0387 68.685 92.8595 69.2573 92.0904 70.1513C84.1203 86.0688 67.6375 97 48.5955 97C21.7569 97 0 75.2858 0 48.5C0 21.7142 21.7569 0 48.5955 0ZM48.5955 11.7746C28.2727 11.7746 11.7977 28.2171 11.7977 48.5C11.7977 68.7829 28.2727 85.2254 48.5955 85.2254C68.9183 85.2254 85.3932 68.7829 85.3932 48.5C85.3932 28.2171 68.9183 11.7746 48.5955 11.7746Z" fill="white"/>
<path fill-rule="evenodd" clip-rule="evenodd" d="M214.857 28.059C219.756 27.9746 223.98 28.4816 227.527 29.5799C231.159 30.6782 234.369 32.1989 237.156 34.1421C238.086 34.8179 239.015 35.5784 239.944 36.4232C240.957 37.1835 241.802 38.0285 242.478 38.9578C243.154 39.8026 243.745 40.6476 244.252 41.4924C244.843 42.3373 245.434 43.2244 246.026 44.1538C246.617 45.0831 247.081 46.0969 247.419 47.1952C247.757 48.209 248.137 49.3075 248.559 50.4904C248.813 51.1662 249.024 51.8843 249.193 52.6447C249.362 53.4051 249.531 54.1654 249.7 54.9258C249.774 55.2215 249.815 55.5172 249.825 55.8128L249.828 56.0663C249.838 56.362 249.879 56.6577 249.953 56.9534C250.112 57.3494 250.159 57.7827 250.094 58.253L250.066 58.4419C250.001 58.9122 250.048 59.3455 250.207 59.7415C250.376 60.2484 250.46 60.9666 250.46 61.8959C250.46 62.8251 250.376 63.5433 250.207 64.0502V65.3175C250.038 65.9934 249.953 66.6695 249.953 67.3454C250.038 68.0212 249.995 68.6971 249.827 69.373C249.658 69.9644 249.531 70.5136 249.446 71.0206C249.362 71.5274 249.278 72.0765 249.193 72.6679C248.855 73.5972 248.56 74.5689 248.306 75.5828C248.053 76.5121 247.715 77.3993 247.293 78.2441C245.519 82.2994 243.196 85.5943 240.324 88.1288C237.452 90.6634 233.989 92.7757 229.935 94.4654C228.921 94.8878 227.865 95.1834 226.767 95.3524C225.753 95.6059 224.698 95.8595 223.6 96.113C223.177 96.2819 222.713 96.3665 222.206 96.3665C221.699 96.3665 221.234 96.4085 220.812 96.493H219.925C219.672 96.5774 219.418 96.6197 219.165 96.6197C218.743 96.7042 218.067 96.7465 217.138 96.7465C216.209 96.831 215.491 96.7887 214.984 96.6197H213.717C213.294 96.5352 212.83 96.493 212.323 96.493C211.901 96.5774 211.478 96.5354 211.056 96.3665C210.718 96.282 210.38 96.2397 210.043 96.2397C209.789 96.2397 209.451 96.1974 209.029 96.113C208.184 95.8595 207.34 95.6481 206.495 95.4792C205.65 95.3102 204.848 95.0568 204.088 94.7189C203.074 94.381 202.103 94.043 201.173 93.7051C200.329 93.3672 199.442 92.9447 198.513 92.4378C195.556 90.6636 193.022 88.5936 190.911 86.228C188.799 83.8624 187.025 81.0321 185.589 77.7371C185.167 76.9767 184.829 76.1741 184.575 75.3292C184.407 74.4844 184.195 73.5972 183.942 72.6679C183.794 72.2982 183.711 71.9609 183.692 71.656L183.685 71.3986C183.666 71.0937 183.583 70.7564 183.435 70.3868C183.266 69.7109 183.182 69.035 183.182 68.3592C183.182 67.5988 183.097 66.8807 182.928 66.2048C182.844 65.7825 182.802 65.4022 182.802 65.0643V63.9235C182.633 63.4165 182.548 62.6984 182.548 61.7691C182.633 60.8398 182.76 60.1217 182.928 59.6148V58.7277C183.013 58.3053 183.013 57.8828 182.928 57.4604C182.928 56.9535 183.013 56.4888 183.182 56.0663C183.266 55.6439 183.309 55.2637 183.309 54.9258C183.309 54.5034 183.393 54.0809 183.562 53.6585C183.9 52.5602 184.196 51.5042 184.449 50.4904C184.702 49.392 185.04 48.3358 185.463 47.3219C186.983 43.858 188.799 40.9854 190.911 38.7043C193.022 36.3387 195.599 34.1844 198.639 32.2413C199.484 31.8188 200.371 31.4386 201.3 31.1007C202.229 30.7628 203.158 30.3826 204.088 29.9601C205.186 29.5377 206.326 29.2418 207.508 29.0728C208.691 28.9039 209.916 28.6505 211.183 28.3126C211.858 28.2281 212.492 28.1858 213.083 28.1858C213.675 28.1858 214.266 28.1435 214.857 28.059ZM219.418 41.6192C218.743 41.4502 218.025 41.4079 217.265 41.4924H214.984C214.73 41.6614 214.435 41.7459 214.097 41.7459C213.759 41.6615 213.464 41.6615 213.21 41.7459C212.619 41.9149 212.027 42.0837 211.436 42.2527C210.929 42.3372 210.465 42.5063 210.043 42.7597C207.931 43.6891 206.199 45.041 204.848 46.8152C203.581 48.5049 202.567 50.4904 201.807 52.7715C201.553 53.6163 201.342 54.5035 201.173 55.4328C201.089 56.3621 200.962 57.2914 200.793 58.2207C200.709 58.6431 200.667 59.0656 200.667 59.488V60.7553C200.498 61.3467 200.413 62.2339 200.413 63.4167C200.498 64.5995 200.624 65.4867 200.793 66.0781V67.2186C200.962 67.8945 201.089 68.5703 201.173 69.2462C201.258 69.8376 201.384 70.4712 201.553 71.147C202.398 73.6816 203.285 75.7516 204.214 77.3568C205.228 78.8776 206.791 80.2717 208.902 81.539C209.494 81.9614 210.127 82.2994 210.803 82.5528C211.563 82.8063 212.323 83.0174 213.083 83.1863C213.421 83.2708 213.717 83.3131 213.97 83.3131C214.224 83.2286 214.519 83.2286 214.857 83.3131C215.195 83.3976 215.533 83.4821 215.871 83.5666C216.293 83.5666 216.673 83.5243 217.011 83.4399H218.025C218.7 83.2709 219.376 83.1443 220.052 83.0599C220.728 82.9754 221.361 82.8063 221.952 82.5528C224.148 81.708 225.922 80.5674 227.274 79.1312C228.625 77.6949 229.766 75.9206 230.695 73.8084C231.033 72.9636 231.286 72.1186 231.455 71.2738C231.624 70.429 231.835 69.542 232.089 68.6127C232.173 68.2747 232.215 67.9788 232.215 67.7254C232.215 67.3875 232.258 67.0495 232.342 66.7116V65.571C232.342 65.1486 232.384 64.7262 232.468 64.3037C232.553 63.8813 232.595 63.29 232.595 62.5297C232.595 61.6848 232.553 61.051 232.468 60.6286V59.6148C232.3 59.1923 232.215 58.7276 232.215 58.2207C232.215 57.7138 232.173 57.249 232.089 56.8266C232.089 56.4887 232.046 56.2353 231.962 56.0663C231.793 55.3905 231.624 54.7146 231.455 54.0388C231.37 53.2784 231.202 52.56 230.948 51.8841C230.019 49.6875 228.921 47.8289 227.654 46.3081C226.387 44.7029 224.698 43.4356 222.586 42.5062C222.079 42.3372 221.572 42.2107 221.065 42.1262C220.559 41.9572 220.01 41.7881 219.418 41.6192Z" fill="white"/>
<path fill-rule="evenodd" clip-rule="evenodd" d="M343.314 28.059C346.777 27.9746 350.071 28.1014 353.197 28.4393C356.406 28.7773 359.278 29.4108 361.812 30.3402C364.431 31.2695 366.669 32.5368 368.528 34.1421C370.386 35.6628 371.822 37.6483 372.836 40.0984C373.427 41.5346 373.765 43.1822 373.849 45.0408C373.934 46.8995 373.976 48.8004 373.976 50.7436V83.9469C373.976 85.5521 374.145 87.0306 374.483 88.3823C374.567 88.6358 374.609 88.9315 374.609 89.2694C374.609 89.5228 374.652 89.7765 374.736 90.0299C374.905 90.9592 374.989 91.8885 374.989 92.8178C375.074 93.7471 374.651 94.3809 373.722 94.7189C373.216 94.9724 372.624 95.0992 371.948 95.0992H360.799C360.123 95.0147 359.574 94.8033 359.152 94.4654C358.56 94.1274 358.096 93.6627 357.758 93.0713C357.505 92.3955 357.124 91.8464 356.618 91.424C356.449 91.255 356.237 91.1282 355.984 91.0437C355.731 90.8748 355.393 90.8325 354.97 90.917C354.548 91.0859 354.126 91.2973 353.704 91.5508C353.366 91.8042 352.986 92.0153 352.563 92.1843C352.141 92.5222 351.676 92.8179 351.17 93.0713C350.663 93.3248 350.156 93.5784 349.649 93.8319C348.551 94.3387 347.411 94.7612 346.228 95.0992C345.046 95.3526 343.821 95.6483 342.554 95.9862C341.963 96.1552 341.371 96.2397 340.78 96.2397C340.273 96.3242 339.724 96.4085 339.133 96.493H338.373C338.119 96.5774 337.866 96.6197 337.613 96.6197H336.219C335.374 96.7887 334.529 96.7887 333.685 96.6197H332.544C331.953 96.4508 331.362 96.3665 330.771 96.3665C330.264 96.451 329.757 96.4087 329.25 96.2397C328.406 96.0708 327.603 95.9016 326.843 95.7327C326.083 95.6482 325.365 95.4371 324.689 95.0992C322.24 94.1698 320.128 92.987 318.354 91.5508C316.665 90.03 315.313 88.0443 314.3 85.5942C314.046 85.0028 313.793 84.3692 313.539 83.6934C313.37 83.0175 313.202 82.2994 313.033 81.539C312.864 81.1166 312.779 80.6941 312.779 80.2717C312.864 79.8493 312.864 79.4268 312.779 79.0044C312.695 78.751 312.61 78.244 312.526 77.4836C312.526 76.6388 312.568 76.0475 312.652 75.7095C312.821 74.8647 312.906 74.1463 312.906 73.5549C313.159 72.6256 313.413 71.6963 313.666 70.767C313.919 69.7532 314.257 68.866 314.68 68.1057C316.116 65.6556 317.763 63.797 319.621 62.5297C321.479 61.2624 323.844 60.1638 326.716 59.2345C327.814 58.8121 328.955 58.5164 330.137 58.3475C331.32 58.1785 332.502 57.9674 333.685 57.7139C334.36 57.545 335.078 57.4604 335.839 57.4604C336.599 57.3759 337.359 57.2491 338.119 57.0801C338.711 56.9112 339.302 56.8689 339.893 56.9534C340.484 56.9534 341.118 56.8688 341.794 56.6999C342.385 56.5309 342.976 56.4466 343.567 56.4466C344.159 56.4466 344.792 56.3621 345.468 56.1931C347.242 55.7707 348.847 55.4328 350.283 55.1793C351.803 54.8414 353.155 54.081 354.337 52.8982C355.097 52.1378 355.604 51.2929 355.858 50.3636C355.942 50.1101 355.942 49.8988 355.858 49.7298C355.858 49.5609 355.9 49.392 355.984 49.223C356.069 49.0541 356.111 48.8004 356.111 48.4625V47.7022C356.026 47.3643 355.942 47.0263 355.858 46.6884C355.858 46.3505 355.815 46.0548 355.731 45.8014C354.886 43.2668 353.112 41.5347 350.409 40.6054C349.649 40.3519 348.72 40.1828 347.622 40.0984C346.608 39.9294 345.552 39.8871 344.454 39.9716C343.356 39.9716 342.3 40.0561 341.287 40.2251C340.273 40.3941 339.386 40.6055 338.626 40.8589C338.119 41.0279 337.612 41.2812 337.106 41.6192C336.683 41.8726 336.261 42.1683 335.839 42.5062C335.416 42.8441 334.952 43.3089 334.445 43.9003C334.023 44.4917 333.727 45.041 333.558 45.5479C333.136 46.3927 332.756 47.1954 332.418 47.9557C332.165 48.7161 331.573 49.2228 330.644 49.4763C329.968 49.6453 329.25 49.7298 328.49 49.7298H321.395C320.973 49.7298 320.55 49.7721 320.128 49.8566C319.705 49.8566 319.325 49.8143 318.987 49.7298H317.847C317.678 49.6453 317.467 49.6031 317.214 49.603C316.96 49.603 316.749 49.5188 316.58 49.3498C315.904 49.1808 315.44 48.6315 315.187 47.7022C315.102 47.2798 315.102 46.8573 315.187 46.4349C315.271 46.0125 315.355 45.6323 315.44 45.2944C315.693 44.365 315.947 43.5201 316.2 42.7597C316.538 41.9149 316.918 41.1545 317.34 40.4786L318.861 37.944C319.536 37.0147 320.381 36.1275 321.395 35.2826C321.564 35.1981 321.817 34.987 322.155 34.6491C322.577 34.3112 322.957 34.0155 323.295 33.7621C323.633 33.5086 324.013 33.255 324.436 33.0015C325.872 32.0722 327.392 31.3541 328.997 30.8472C330.602 30.2558 332.249 29.7065 333.938 29.1996C334.952 28.9461 336.008 28.7773 337.106 28.6928C338.204 28.6084 339.302 28.4393 340.4 28.1858C340.738 28.1013 341.245 28.1013 341.92 28.1858C342.681 28.2703 343.145 28.228 343.314 28.059ZM353.45 64.684C353.112 64.7685 352.817 64.853 352.563 64.9375C352.31 64.9375 352.014 64.9798 351.676 65.0643C351.085 65.2332 350.451 65.3598 349.776 65.4443C349.1 65.5288 348.424 65.6556 347.749 65.8246C347.495 65.909 347.115 65.9513 346.608 65.9513C345.51 66.2048 344.412 66.3736 343.314 66.4581C342.216 66.5426 341.16 66.7539 340.146 67.0919C339.471 67.2608 338.837 67.4297 338.246 67.5986C337.655 67.6831 337.064 67.8522 336.472 68.1057C334.698 68.866 333.178 70.0066 331.911 71.5273C330.728 73.0481 330.306 75.1603 330.644 77.8639C330.813 79.3001 331.278 80.4829 332.038 81.4123C332.629 82.3416 333.516 83.102 334.698 83.6934C335.881 84.2003 337.148 84.5805 338.499 84.8339C339.935 85.0874 341.414 85.1719 342.934 85.0874C344.539 84.9185 346.017 84.6228 347.368 84.2004C349.565 83.5245 351.296 82.4683 352.563 81.032C353.83 79.5113 354.802 77.6526 355.477 75.456C355.646 74.8646 355.731 74.2731 355.731 73.6817C355.815 73.0058 355.942 72.3299 356.111 71.6541V70.5135C356.195 70.0911 356.238 69.6264 356.238 69.1195C356.238 68.5281 356.195 68.021 356.111 67.5986C355.942 67.0918 355.858 66.6272 355.858 66.2048C355.858 65.7824 355.689 65.4442 355.351 65.1908C354.928 64.8529 354.295 64.684 353.45 64.684Z" fill="white"/>
<path d="M298.395 29.8334C298.901 29.6644 299.45 29.6222 300.042 29.7066H307.897C308.826 29.7066 309.671 29.7489 310.431 29.8334C311.276 29.8334 311.909 30.0445 312.332 30.4669C312.839 30.8893 313.007 31.5231 312.838 32.368C312.754 33.1283 312.627 33.7619 312.458 34.2688C312.036 35.4516 311.614 36.719 311.191 38.0708C310.769 39.3381 310.347 40.5631 309.924 41.7459C309.671 42.3373 309.46 42.9287 309.291 43.52C309.206 44.0269 309.08 44.5339 308.911 45.0408C308.488 45.9702 308.108 46.8996 307.77 47.829C307.517 48.7583 307.221 49.6878 306.884 50.6171C306.799 50.8705 306.715 51.1663 306.63 51.5041C306.63 51.7576 306.546 52.011 306.377 52.2644C305.87 53.5317 305.405 54.8413 304.983 56.1931C304.645 57.4604 304.265 58.7277 303.843 59.995C302.914 62.5296 302.027 65.1486 301.182 67.8521C300.337 70.4712 299.408 73.0482 298.395 75.5828C297.972 76.7655 297.592 77.9484 297.254 79.1312C296.916 80.2295 296.536 81.37 296.114 82.5528C295.945 82.9752 295.818 83.3554 295.734 83.6934C295.65 83.9468 295.523 84.2848 295.354 84.7072C295.016 85.6365 294.678 86.6082 294.34 87.6221C294.087 88.5514 293.791 89.4806 293.453 90.4099C293.031 91.3392 292.651 92.2265 292.313 93.0713C291.975 93.8317 291.342 94.3809 290.413 94.7189C289.737 94.9723 289.019 95.0992 288.259 95.0992C287.498 95.0147 286.738 94.9724 285.978 94.9724H274.955C274.11 94.9724 273.35 94.8033 272.674 94.4654C272.083 94.043 271.661 93.5359 271.407 92.9445C271.154 92.2687 270.9 91.5505 270.647 90.7902C270.278 89.9031 269.94 88.9837 269.635 88.0319L269.378 87.2122C269.073 86.2604 268.736 85.3408 268.366 84.4537C268.198 84.1158 268.071 83.82 267.986 83.5666C267.986 83.2287 267.902 82.8485 267.733 82.4261C267.311 81.4123 266.931 80.3562 266.593 79.2579C266.255 78.1596 265.875 77.0611 265.452 75.9628C265.283 75.5404 265.157 75.1601 265.072 74.8222C264.988 74.3998 264.861 73.9773 264.692 73.5549C264.354 72.7945 264.059 72.0341 263.805 71.2738C263.552 70.429 263.298 69.6263 263.045 68.8659C262.876 68.6125 262.792 68.3591 262.792 68.1057C262.792 67.7677 262.707 67.4721 262.538 67.2186C262.2 66.4583 261.905 65.6979 261.651 64.9375C261.483 64.1772 261.229 63.3745 260.891 62.5297C260.131 60.5865 259.413 58.601 258.737 56.5734C258.061 54.4612 257.386 52.3913 256.71 50.3636C255.781 48.0825 254.978 45.8011 254.303 43.52C253.627 41.1544 252.867 38.831 252.022 36.5499L250.882 33.1283C250.797 32.8748 250.713 32.5792 250.628 32.2413C250.628 31.8188 250.713 31.4386 250.882 31.1007C251.135 30.5093 251.726 30.0869 252.656 29.8334C253.078 29.8334 253.373 29.7911 253.542 29.7066H262.792C263.721 29.7066 264.608 29.7489 265.452 29.8334C266.297 29.8334 267.015 30.0022 267.606 30.3402C268.535 30.9316 269.169 32.0301 269.507 33.6353C269.929 35.156 270.351 36.5077 270.774 37.6905C271.703 40.4785 272.59 43.3511 273.435 46.3081C274.279 49.1807 275.166 52.0533 276.095 54.9258C276.771 56.9535 277.404 59.0234 277.996 61.1356C278.587 63.2477 279.263 65.2754 280.023 67.2186C280.276 67.979 280.53 68.7816 280.783 69.6265C281.121 70.4713 281.755 70.8938 282.684 70.8938C282.853 70.7249 282.979 70.6404 283.064 70.6403C283.148 70.5558 283.275 70.429 283.444 70.26C283.697 69.8376 283.909 69.4151 284.078 68.9927C284.246 68.5703 284.415 68.1055 284.584 67.5986C285.007 66.6693 285.302 65.6978 285.471 64.684C285.724 63.6702 286.02 62.6985 286.358 61.7691C287.54 58.2207 288.639 54.6723 289.652 51.1239C290.75 47.491 291.891 43.9003 293.073 40.3519C293.495 39.3381 293.833 38.3243 294.087 37.3105C294.34 36.2122 294.636 35.1982 294.974 34.2688C295.143 33.593 295.354 32.9171 295.607 32.2413C295.861 31.5654 296.241 31.0161 296.748 30.5937C297.001 30.4247 297.55 30.1713 298.395 29.8334Z" fill="white"/>
</svg>
