<svg width="445" height="668" viewBox="0 0 445 668" fill="none" xmlns="http://www.w3.org/2000/svg">
<g clip-path="url(#clip0_2048_825)">
<rect width="445" height="668" rx="21" fill="#5A4086"/>
<path d="M-29.0858 -578.455C-29.0858 -781.721 114.445 -896 310.086 -896C509.383 -896 652 -777.974 652 -574.708C652 -398.606 546.866 -298.378 404.249 -282.454V-427.644C471.901 -439.821 537.724 -474.48 537.724 -580.328C537.724 -707.721 438.075 -750.81 311.914 -750.81C184.839 -750.81 85.1904 -707.721 85.1904 -580.328C85.1904 -473.543 151.013 -437.011 225.979 -427.644V-282.454C77.8767 -297.441 -29.0858 -400.479 -29.0858 -578.455Z" fill="#95A162"/>
<path d="M-30 7.04156C-30 -147.516 70.563 -242.124 217.751 -242.124C364.024 -242.124 467.33 -147.516 467.33 8.91486C467.33 163.472 366.767 258.08 219.579 258.08C72.3915 258.08 -30 163.472 -30 7.04156ZM65.9919 7.97821C65.9919 86.662 125.416 126.941 218.665 126.941C311.914 126.941 370.424 86.662 370.424 7.97821C370.424 -70.7056 311.914 -110.984 218.665 -110.984C125.416 -110.984 65.9919 -70.7056 65.9919 7.97821Z" fill="#95A162"/>
<path d="M-15.3726 433.714L451.788 266.042V398.119L119.016 505.841V506.777L451.788 614.499L451.788 742.829L-15.3726 575.157V433.714Z" fill="#95A162"/>
<path d="M-29.0858 900.328C-29.0858 805.72 24.8526 746.707 106.217 746.707C205.866 746.707 241.52 828.201 262.547 935.923C274.432 995.873 282.66 1060.51 328.37 1060.51C357.625 1060.51 378.652 1039.9 378.652 986.506C378.652 920.936 354.882 895.644 302.772 890.961V766.378C392.365 771.062 467.33 835.695 467.33 992.126C467.33 1110.15 419.791 1185.09 285.402 1185.09H90.6757C62.3352 1185.09 49.5363 1187.9 49.5363 1204.76C49.5363 1207.57 49.5362 1210.38 50.4504 1216H-14.4584C-19.0295 1191.65 -20.8578 1166.35 -20.8578 1146.68C-20.8578 1092.35 1.08312 1068.94 44.9651 1062.38V1060.51C0.168907 1026.78 -29.0858 972.455 -29.0858 900.328ZM60.5068 947.164C60.5068 1015.54 107.131 1060.51 171.126 1060.51H220.493C211.351 1042.71 204.038 1013.67 193.981 969.645C180.268 904.075 157.413 878.784 118.102 878.784C79.7051 878.784 60.5068 902.201 60.5068 947.164Z" fill="#95A162"/>
</g>
<defs>
<clipPath id="clip0_2048_825">
<rect width="445" height="668" rx="21" fill="white"/>
</clipPath>
</defs>
</svg>
