<svg width="445" height="668" viewBox="0 0 445 668" fill="none" xmlns="http://www.w3.org/2000/svg">
<g clip-path="url(#clip0_2048_909)">
<rect width="445" height="668" rx="21" fill="#86D400"/>
<path d="M-21.0858 -1125.45C-21.0858 -1328.72 122.445 -1443 318.086 -1443C517.383 -1443 660 -1324.97 660 -1121.71C660 -945.606 554.866 -845.378 412.249 -829.454V-974.644C479.901 -986.821 545.724 -1021.48 545.724 -1127.33C545.724 -1254.72 446.075 -1297.81 319.914 -1297.81C192.839 -1297.81 93.1904 -1254.72 93.1904 -1127.33C93.1904 -1020.54 159.013 -984.011 233.979 -974.644V-829.454C85.8767 -844.441 -21.0858 -947.479 -21.0858 -1125.45Z" fill="#FF00BE"/>
<path d="M-22 -539.958C-22 -694.516 78.563 -789.124 225.751 -789.124C372.024 -789.124 475.33 -694.516 475.33 -538.085C475.33 -383.528 374.767 -288.92 227.579 -288.92C80.3915 -288.92 -22 -383.528 -22 -539.958ZM73.9919 -539.022C73.9919 -460.338 133.416 -420.059 226.665 -420.059C319.914 -420.059 378.424 -460.338 378.424 -539.022C378.424 -617.706 319.914 -657.984 226.665 -657.984C133.416 -657.984 73.9919 -617.706 73.9919 -539.022Z" fill="#FF00BE"/>
<path d="M-7.37262 -113.286L459.788 -280.958V-148.881L127.016 -41.1594V-40.2228L459.788 67.4991L459.788 195.829L-7.37262 28.1573V-113.286Z" fill="#FF00BE"/>
<path d="M-21.0858 353.328C-21.0858 258.72 32.8526 199.707 114.217 199.707C213.866 199.707 249.52 281.201 270.547 388.923C282.432 448.873 290.66 513.506 336.37 513.506C365.625 513.506 386.652 492.898 386.652 439.506C386.652 373.936 362.882 348.644 310.772 343.961V219.378C400.365 224.062 475.33 288.695 475.33 445.126C475.33 563.152 427.791 638.088 293.402 638.088H98.6757C70.3352 638.088 57.5363 640.899 57.5363 657.76C57.5363 660.57 57.5362 663.38 58.4504 669H-6.45844C-11.0295 644.645 -12.8578 619.354 -12.8578 599.683C-12.8578 545.354 9.08312 521.936 52.9651 515.379V513.506C8.16891 479.784 -21.0858 425.455 -21.0858 353.328ZM68.5068 400.164C68.5068 468.544 115.131 513.506 179.126 513.506H228.493C219.351 495.708 212.038 466.67 201.981 422.645C188.268 357.075 165.413 331.784 126.102 331.784C87.7051 331.784 68.5068 355.201 68.5068 400.164Z" fill="#FF00BE"/>
</g>
<defs>
<clipPath id="clip0_2048_909">
<rect width="445" height="668" rx="21" fill="white"/>
</clipPath>
</defs>
</svg>
