<svg width="445" height="668" viewBox="0 0 445 668" fill="none" xmlns="http://www.w3.org/2000/svg">
<g clip-path="url(#clip0_2048_834)">
<rect width="445" height="668" rx="21" fill="#A6B450"/>
<path d="M-21.0858 -704.455C-21.0858 -907.721 122.445 -1022 318.086 -1022C517.383 -1022 660 -903.974 660 -700.708C660 -524.606 554.866 -424.378 412.249 -408.454V-553.644C479.901 -565.821 545.724 -600.48 545.724 -706.328C545.724 -833.721 446.075 -876.81 319.914 -876.81C192.839 -876.81 93.1904 -833.721 93.1904 -706.328C93.1904 -599.543 159.013 -563.011 233.979 -553.644V-408.454C85.8767 -423.441 -21.0858 -526.479 -21.0858 -704.455Z" fill="#F78191"/>
<path d="M-22 -118.958C-22 -273.516 78.563 -368.124 225.751 -368.124C372.024 -368.124 475.33 -273.516 475.33 -117.085C475.33 37.4723 374.767 132.08 227.579 132.08C80.3915 132.08 -22 37.4724 -22 -118.958ZM73.9919 -118.022C73.9919 -39.338 133.416 0.940613 226.665 0.940613C319.914 0.940613 378.424 -39.338 378.424 -118.022C378.424 -196.706 319.914 -236.984 226.665 -236.984C133.416 -236.984 73.9919 -196.706 73.9919 -118.022Z" fill="#F78191"/>
<path d="M-7.37262 307.714L459.788 140.042V272.119L127.016 379.841V380.777L459.788 488.499L459.788 616.829L-7.37262 449.157V307.714Z" fill="#F78191"/>
<path d="M-21.0858 774.328C-21.0858 679.72 32.8526 620.707 114.217 620.707C213.866 620.707 249.52 702.201 270.547 809.923C282.432 869.873 290.66 934.506 336.37 934.506C365.625 934.506 386.652 913.898 386.652 860.506C386.652 794.936 362.882 769.644 310.772 764.961V640.378C400.365 645.062 475.33 709.695 475.33 866.126C475.33 984.152 427.791 1059.09 293.402 1059.09H98.6757C70.3352 1059.09 57.5363 1061.9 57.5363 1078.76C57.5363 1081.57 57.5362 1084.38 58.4504 1090H-6.45844C-11.0295 1065.65 -12.8578 1040.35 -12.8578 1020.68C-12.8578 966.354 9.08312 942.936 52.9651 936.379V934.506C8.16891 900.784 -21.0858 846.455 -21.0858 774.328ZM68.5068 821.164C68.5068 889.544 115.131 934.506 179.126 934.506H228.493C219.351 916.708 212.038 887.67 201.981 843.645C188.268 778.075 165.413 752.784 126.102 752.784C87.7051 752.784 68.5068 776.201 68.5068 821.164Z" fill="#F78191"/>
</g>
<defs>
<clipPath id="clip0_2048_834">
<rect width="445" height="668" rx="21" fill="white"/>
</clipPath>
</defs>
</svg>
