<svg width="134" height="134" viewBox="0 0 134 134" fill="none" xmlns="http://www.w3.org/2000/svg">
<g clip-path="url(#clip0_2522_1742)">
<path d="M67 134C104.003 134 134 104.003 134 67C134 29.9969 104.003 0 67 0C29.9969 0 0 29.9969 0 67C0 104.003 29.9969 134 67 134Z" fill="#5F259F"/>
<path d="M92.3411 52.429C92.3411 50.2464 90.4694 48.3747 88.2868 48.3747H80.8014L63.6465 28.7246C62.0873 26.8529 59.5921 26.2295 57.097 26.8529L51.1709 28.7246C50.2351 29.0371 49.9225 30.2839 50.5476 30.9072L69.2617 48.6872H40.8747C39.9388 48.6872 39.3154 49.3106 39.3154 50.2464V53.3649C39.3154 55.5475 41.1872 57.4193 43.3698 57.4193H47.7366V72.3916C47.7366 83.6204 53.6628 90.1716 63.6449 90.1716C66.7633 90.1716 69.2601 89.8591 72.3786 88.6123V98.5944C72.3786 101.402 74.5612 103.585 77.3688 103.585H81.7357C82.6715 103.585 83.6074 102.649 83.6074 101.713V57.1084H90.7819C91.7178 57.1084 92.3411 56.485 92.3411 55.5492V52.429ZM72.3786 79.2536C70.5068 80.1895 68.0117 80.502 66.14 80.502C61.1497 80.502 58.6546 78.0068 58.6546 72.3916V57.4193H72.3786V79.2536Z" fill="white"/>
</g>
<defs>
<clipPath id="clip0_2522_1742">
<rect width="134" height="134" rx="67" fill="white"/>
</clipPath>
</defs>
</svg>
